<svg width="21" height="21" viewBox="0 0 21 21" fill="none" xmlns="http://www.w3.org/2000/svg">
<path d="M10.0328 -0.000144958C11.3972 -0.000144958 12.7015 0.260708 13.9456 0.782413C15.1361 1.29074 16.1963 2.00976 17.126 2.93946C18.0557 3.86917 18.7747 4.9293 19.283 6.11986C19.8047 7.36392 20.0656 8.66818 20.0656 10.0326C20.0656 11.3971 19.8047 12.7014 19.283 13.9454C18.7747 15.136 18.0557 16.1961 17.126 17.1258C16.1963 18.0555 15.1361 18.7745 13.9456 19.2829C12.7015 19.8046 11.3972 20.0654 10.0328 20.0654C8.66833 20.0654 7.36407 19.8046 6.12 19.2829C4.92944 18.7745 3.86931 18.0555 2.93961 17.1258C2.0099 16.1961 1.29089 15.136 0.782557 13.9454C0.260852 12.7014 0 11.3971 0 10.0326C0 8.66818 0.260852 7.36392 0.782557 6.11986C1.29089 4.9293 2.0099 3.86917 2.93961 2.93946C3.86931 2.00976 4.92944 1.29074 6.12 0.782413C7.36407 0.260708 8.66833 -0.000144958 10.0328 -0.000144958ZM10.0328 9.02936H6.01967V11.0359H10.0328V14.0458L14.0459 10.0326L10.0328 6.01953V9.02936Z" fill="#F53E32"/>
</svg>
