<svg width="39" height="35" viewBox="0 0 39 35" fill="none" xmlns="http://www.w3.org/2000/svg">
<path d="M0 11.5C0 9.40444 0.523889 7.46222 1.57167 5.67333C2.59389 3.96111 3.96111 2.59389 5.67333 1.57167C7.46222 0.523888 9.40444 0 11.5 0H26.8333C28.9033 0 30.8328 0.523888 32.6217 1.57167C34.3594 2.59389 35.7394 3.97389 36.7617 5.71167C37.8094 7.50056 38.3333 9.43 38.3333 11.5V34.5H11.5C9.43 34.5 7.50056 33.9761 5.71167 32.9283C3.97389 31.9061 2.59389 30.5261 1.57167 28.7883C0.523889 26.9994 0 25.07 0 23V11.5ZM34.5 30.6667V11.5C34.5 10.12 34.155 8.84222 33.465 7.66667C32.775 6.49111 31.8422 5.55833 30.6667 4.86833C29.4911 4.17833 28.2133 3.83333 26.8333 3.83333H11.5C10.12 3.83333 8.84222 4.17833 7.66667 4.86833C6.49111 5.55833 5.55833 6.48472 4.86833 7.6475C4.17833 8.81028 3.83333 10.0944 3.83333 11.5V23C3.83333 24.38 4.17833 25.6578 4.86833 26.8333C5.55833 28.0089 6.49111 28.9417 7.66667 29.6317C8.84222 30.3217 10.12 30.6667 11.5 30.6667H34.5ZM23 15.3333H26.8333V19.1667H23V15.3333ZM11.5 15.3333H15.3333V19.1667H11.5V15.3333Z" fill="#F53E32"/>
</svg>
