<svg width="12" height="12" viewBox="0 0 12 12" fill="none" xmlns="http://www.w3.org/2000/svg">
<path d="M5.68 4.04033C5.99111 3.71144 6.33778 3.46255 6.72 3.29366C7.12889 3.10699 7.56 3.01366 8.01333 3.01366C8.67111 3.00477 9.28222 3.16477 9.84667 3.49366C10.4111 3.82255 10.8578 4.26921 11.1867 4.83366C11.5156 5.3981 11.68 6.00921 11.68 6.66699V11.667H10.3467V6.66699C10.3467 6.24921 10.24 5.86255 10.0267 5.50699C9.81333 5.15144 9.52889 4.86699 9.17333 4.65366C8.81778 4.44033 8.42889 4.33366 8.00667 4.33366C7.58444 4.33366 7.19556 4.44033 6.84 4.65366C6.48444 4.86699 6.20222 5.15144 5.99333 5.50699C5.78444 5.86255 5.68 6.25366 5.68 6.68033V11.667H4.34667V3.33366H5.68V4.04033ZM1 2.00033C0.724444 2.00033 0.488889 1.90477 0.293333 1.71366C0.0977778 1.52255 0 1.28699 0 1.00699C0 0.726992 0.0977778 0.489214 0.293333 0.293658C0.488889 0.0981026 0.726667 0.000325203 1.00667 0.000325203C1.28667 0.000325203 1.52222 0.0981026 1.71333 0.293658C1.90444 0.489214 2 0.726992 2 1.00699C2 1.28699 1.90444 1.52255 1.71333 1.71366C1.52222 1.90477 1.28444 2.00033 1 2.00033ZM0.333333 3.33366H1.66667V11.667H0.333333V3.33366Z" fill="black"/>
</svg>
