<svg width="9" height="14" viewBox="0 0 9 14" fill="none" xmlns="http://www.w3.org/2000/svg">
<path d="M5 5.48324H8.1875L7.83333 6.8999H5V13.2749H3.58333V6.8999H0.75V5.48324H3.58333V4.15157C3.58333 3.55657 3.61167 3.09379 3.66833 2.76324C3.725 2.48935 3.81944 2.2249 3.95167 1.9699C4.20667 1.50712 4.56556 1.15296 5.02833 0.907402C5.27389 0.765736 5.53833 0.67129 5.82167 0.624068C6.15222 0.557958 6.615 0.524902 7.21 0.524902C7.57833 0.524902 7.89944 0.557958 8.17333 0.624068V1.94157H7.21C6.75667 1.94157 6.42847 1.95574 6.22542 1.98407C6.02236 2.0124 5.84528 2.06907 5.69417 2.15407C5.47694 2.2674 5.31167 2.42796 5.19833 2.63574C5.12278 2.78685 5.07083 2.96393 5.0425 3.16699C5.01417 3.37004 4.99528 3.69824 4.98583 4.15157V5.48324H5Z" fill="black"/>
</svg>
