<svg width="19" height="18" viewBox="0 0 19 18" fill="none" xmlns="http://www.w3.org/2000/svg">
<path d="M9.23162 1.40256C9.94559 0.762445 10.7642 0.340834 11.6874 0.13772C12.6107 -0.0653915 13.5216 -0.0438499 14.4202 0.202347C15.3558 0.460854 16.1651 0.931705 16.8483 1.6149C17.5315 2.2981 18.0024 3.10747 18.2609 4.04302C18.5071 4.94163 18.5286 5.84949 18.3255 6.76657C18.1224 7.68365 17.7008 8.50533 17.0607 9.23161L9.23162 17.0607L1.40256 9.23161C0.762451 8.50533 0.340839 7.68365 0.137727 6.76657C-0.0653855 5.84949 -0.0438432 4.94163 0.202353 4.04302C0.46086 3.10747 0.934789 2.2981 1.62414 1.6149C2.31349 0.931705 3.11978 0.460854 4.04302 0.202347C4.94164 -0.0438499 5.85257 -0.0653915 6.77581 0.13772C7.69904 0.340834 8.51765 0.762445 9.23162 1.40256ZM15.5281 2.91667C15.0726 2.4612 14.5433 2.15038 13.9401 1.9842C13.3369 1.81801 12.7276 1.80263 12.1121 1.93803C11.4966 2.07344 10.9488 2.35657 10.4688 2.78741L9.23162 3.8953L7.99448 2.78741C7.52671 2.35657 6.982 2.07344 6.36035 1.93803C5.7387 1.80263 5.12629 1.81801 4.52311 1.9842C3.91992 2.15038 3.3906 2.4612 2.93514 2.91667C2.47967 3.37213 2.16577 3.90145 1.99343 4.50464C1.8211 5.10782 1.79955 5.71408 1.92881 6.32341C2.05806 6.93275 2.33196 7.47746 2.75049 7.95754L9.23162 14.4571L15.7127 7.95754C16.1313 7.47746 16.4052 6.93275 16.5344 6.32341C16.6637 5.71408 16.6421 5.10782 16.4698 4.50464C16.2975 3.90145 15.9836 3.37213 15.5281 2.91667Z" fill="black"/>
</svg>
