<svg width="20" height="17" viewBox="0 0 20 17" fill="none" xmlns="http://www.w3.org/2000/svg">
<path d="M9.98943 5.72205e-06C11.6143 5.72205e-06 13.1531 0.369301 14.6056 1.10789C15.9966 1.82186 17.1691 2.80973 18.1232 4.07148C19.0772 5.33324 19.6957 6.7458 19.9789 8.30915C19.6957 9.8725 19.0772 11.285 18.1232 12.5468C17.1691 13.8086 15.9966 14.7964 14.6056 15.5104C13.1531 16.249 11.6143 16.6183 9.98943 16.6183C8.36453 16.6183 6.8258 16.249 5.37324 15.5104C3.98223 14.7964 2.80972 13.8086 1.85571 12.5468C0.901696 11.285 0.283126 9.8725 0 8.30915C0.283126 6.7458 0.901696 5.33324 1.85571 4.07148C2.80972 2.80973 3.98223 1.82186 5.37324 1.10789C6.8258 0.369301 8.36453 5.72205e-06 9.98943 5.72205e-06ZM9.98943 14.7718C11.2697 14.7718 12.4883 14.4887 13.6455 13.9224C14.7656 13.3808 15.7166 12.6176 16.4983 11.6328C17.2799 10.648 17.8123 9.54013 18.0955 8.30915C17.8123 7.07816 17.2799 5.97028 16.4983 4.98549C15.7166 4.0007 14.7656 3.23749 13.6455 2.69586C12.4883 2.12961 11.2697 1.84648 9.98943 1.84648C8.70921 1.84648 7.49054 2.12961 6.33341 2.69586C5.21322 3.23749 4.26228 4.0007 3.48061 4.98549C2.69893 5.97028 2.16653 7.07816 1.88341 8.30915C2.16653 9.54013 2.69893 10.648 3.48061 11.6328C4.26228 12.6176 5.21322 13.3808 6.33341 13.9224C7.49054 14.4887 8.70921 14.7718 9.98943 14.7718ZM9.98943 12.4637C9.23853 12.4637 8.5461 12.276 7.91215 11.9005C7.27819 11.5251 6.77349 11.0204 6.39804 10.3864C6.02259 9.75247 5.83486 9.06005 5.83486 8.30915C5.83486 7.55825 6.02259 6.86582 6.39804 6.23186C6.77349 5.59791 7.27819 5.0932 7.91215 4.71775C8.5461 4.3423 9.23853 4.15458 9.98943 4.15458C10.7403 4.15458 11.4328 4.3423 12.0667 4.71775C12.7007 5.0932 13.2054 5.59791 13.5808 6.23186C13.9563 6.86582 14.144 7.55825 14.144 8.30915C14.144 9.06005 13.9563 9.75247 13.5808 10.3864C13.2054 11.0204 12.7007 11.5251 12.0667 11.9005C11.4328 12.276 10.7403 12.4637 9.98943 12.4637ZM9.98943 10.6172C10.408 10.6172 10.7926 10.5126 11.1435 10.3033C11.4943 10.0941 11.7744 9.81402 11.9836 9.46319C12.1929 9.11236 12.2975 8.72768 12.2975 8.30915C12.2975 7.89061 12.1929 7.50593 11.9836 7.1551C11.7744 6.80427 11.4943 6.52422 11.1435 6.31495C10.7926 6.10569 10.408 6.00105 9.98943 6.00105C9.5709 6.00105 9.18622 6.10569 8.83539 6.31495C8.48456 6.52422 8.20451 6.80427 7.99524 7.1551C7.78597 7.50593 7.68134 7.89061 7.68134 8.30915C7.68134 8.72768 7.78597 9.11236 7.99524 9.46319C8.20451 9.81402 8.48456 10.0941 8.83539 10.3033C9.18622 10.5126 9.5709 10.6172 9.98943 10.6172Z" fill="black"/>
</svg>
