<svg width="19" height="19" viewBox="0 0 19 19" fill="none" xmlns="http://www.w3.org/2000/svg">
<path d="M13.75 3.66683H18.3333V5.50016H16.5V17.4168C16.5 17.6735 16.4114 17.8904 16.2342 18.0677C16.0569 18.2449 15.84 18.3335 15.5833 18.3335H2.75C2.49333 18.3335 2.27639 18.2449 2.09917 18.0677C1.92194 17.8904 1.83333 17.6735 1.83333 17.4168V5.50016H0V3.66683H4.58333V0.91683C4.58333 0.660164 4.67194 0.443218 4.84917 0.265997C5.02639 0.0887737 5.24333 0.000164032 5.5 0.000164032H12.8333C13.09 0.000164032 13.3069 0.0887737 13.4842 0.265997C13.6614 0.443218 13.75 0.660164 13.75 0.91683V3.66683ZM14.6667 5.50016H3.66667V16.5002H14.6667V5.50016ZM6.41667 8.25016H8.25V13.7502H6.41667V8.25016ZM10.0833 8.25016H11.9167V13.7502H10.0833V8.25016ZM6.41667 1.8335V3.66683H11.9167V1.8335H6.41667Z" fill="#555555"/>
</svg>
