<svg width="15" height="15" viewBox="0 0 15 15" fill="none" xmlns="http://www.w3.org/2000/svg">
<path d="M9.16667 5.83333H5.83333V9.16667H9.16667V5.83333ZM10.8333 5.83333V9.16667H13.3333V5.83333H10.8333ZM9.16667 13.3333V10.8333H5.83333V13.3333H9.16667ZM10.8333 13.3333H13.3333V10.8333H10.8333V13.3333ZM9.16667 1.66667H5.83333V4.16667H9.16667V1.66667ZM10.8333 1.66667V4.16667H13.3333V1.66667H10.8333ZM4.16667 5.83333H1.66667V9.16667H4.16667V5.83333ZM4.16667 13.3333V10.8333H1.66667V13.3333H4.16667ZM4.16667 1.66667H1.66667V4.16667H4.16667V1.66667ZM0.833333 -9.53674e-07H14.1667C14.4 -9.53674e-07 14.5972 0.080555 14.7583 0.241666C14.9194 0.402777 15 0.599999 15 0.833333V14.1667C15 14.4 14.9194 14.5972 14.7583 14.7583C14.5972 14.9194 14.4 15 14.1667 15H0.833333C0.6 15 0.402778 14.9194 0.241667 14.7583C0.0805556 14.5972 0 14.4 0 14.1667V0.833333C0 0.599999 0.0805556 0.402777 0.241667 0.241666C0.402778 0.080555 0.6 -9.53674e-07 0.833333 -9.53674e-07Z" fill="white"/>
</svg>
