<svg width="15" height="15" viewBox="0 0 15 15" fill="none" xmlns="http://www.w3.org/2000/svg">
<path d="M13.4858 7.60256C13.4575 7.02645 13.3489 6.47868 13.16 5.95923C12.9711 5.43979 12.7114 4.95812 12.3808 4.51423C12.1919 4.71256 11.9747 4.92034 11.7292 5.13756C11.0492 5.70423 10.2653 6.17645 9.3775 6.55423C9.50028 6.80923 9.60889 7.04534 9.70333 7.26256L9.77417 7.4609C10.7847 7.34756 11.885 7.37118 13.075 7.53173L13.4858 7.60256ZM6.84167 2.3184C6.97389 2.49784 7.11083 2.69618 7.2525 2.9134C7.71528 3.58395 8.13556 4.25451 8.51333 4.92507L8.75417 5.35007C9.58528 5.01951 10.3031 4.59923 10.9075 4.08923C11.1247 3.90979 11.3136 3.73034 11.4742 3.5509C10.9736 3.13534 10.4164 2.81423 9.8025 2.58756C9.16972 2.35145 8.51333 2.2334 7.83333 2.2334C7.50278 2.2334 7.17222 2.26173 6.84167 2.3184ZM2.35083 6.4834C2.79472 6.47395 3.27639 6.44562 3.79583 6.3984C4.99528 6.28506 6.14278 6.09145 7.23833 5.81756C6.84167 5.11868 6.4025 4.41034 5.92083 3.69256C5.71306 3.3809 5.51472 3.08812 5.32583 2.81423C4.58917 3.18256 3.95875 3.68548 3.43458 4.32298C2.91042 4.96048 2.54917 5.68062 2.35083 6.4834ZM3.4275 11.4701C3.73917 11.0167 4.11222 10.5681 4.54667 10.1242C5.64222 9.00034 6.86056 8.22118 8.20167 7.78673L8.24417 7.77256C8.12139 7.51756 8.00806 7.28618 7.90417 7.0784C6.6575 7.43729 5.31167 7.68284 3.86667 7.81506C3.25278 7.87173 2.68611 7.90006 2.16667 7.90006C2.16667 8.57062 2.28 9.21284 2.50667 9.82673C2.72389 10.4217 3.03083 10.9695 3.4275 11.4701ZM9.95833 13.1559C9.88278 12.7403 9.78361 12.3059 9.66083 11.8526C9.42472 10.9081 9.14139 9.99201 8.81083 9.10423C7.45083 9.59534 6.30806 10.3178 5.3825 11.2717C4.99528 11.6684 4.68361 12.0603 4.4475 12.4476C4.92917 12.8065 5.45806 13.0827 6.03417 13.2763C6.61028 13.4699 7.21 13.5667 7.83333 13.5667C8.57 13.5667 9.27833 13.4298 9.95833 13.1559ZM11.29 12.3909C11.8378 11.9659 12.2958 11.4583 12.6642 10.868C13.0325 10.2777 13.2781 9.63784 13.4008 8.9484C13.1269 8.87284 12.8342 8.81618 12.5225 8.7784C11.7386 8.66506 10.9878 8.65562 10.27 8.75006C10.5817 9.61895 10.8461 10.502 11.0633 11.3992C11.1483 11.7487 11.2239 12.0792 11.29 12.3909ZM7.83333 14.9834C6.87 14.9834 5.94917 14.7992 5.07083 14.4309C4.23028 14.072 3.48181 13.5644 2.82542 12.908C2.16903 12.2516 1.66139 11.5031 1.3025 10.6626C0.934167 9.78423 0.75 8.8634 0.75 7.90006C0.75 6.93673 0.934167 6.0159 1.3025 5.13756C1.66139 4.29701 2.16903 3.54854 2.82542 2.89215C3.48181 2.23576 4.23028 1.72812 5.07083 1.36923C5.94917 1.0009 6.87 0.816731 7.83333 0.816731C8.79667 0.816731 9.7175 1.0009 10.5958 1.36923C11.4364 1.72812 12.1849 2.23576 12.8413 2.89215C13.4976 3.54854 14.0053 4.29701 14.3642 5.13756C14.7325 6.0159 14.9167 6.93673 14.9167 7.90006C14.9167 8.8634 14.7325 9.78423 14.3642 10.6626C14.0053 11.5031 13.4976 12.2516 12.8413 12.908C12.1849 13.5644 11.4364 14.072 10.5958 14.4309C9.7175 14.7992 8.79667 14.9834 7.83333 14.9834Z" fill="black"/>
</svg>
