<svg width="16" height="16" viewBox="0 0 16 16" fill="none" xmlns="http://www.w3.org/2000/svg">
<path d="M5.32078 6.80573C5.7112 7.49732 6.18806 8.12477 6.75137 8.68808C7.31468 9.25139 7.94213 9.72825 8.63373 10.1187L9.36993 9.08128C9.49264 8.90281 9.65717 8.79126 9.86353 8.74664C10.0699 8.70202 10.2679 8.72991 10.4575 8.8303C11.6511 9.48843 12.9283 9.86769 14.2892 9.96808C14.5011 9.99039 14.6824 10.0796 14.8329 10.2358C14.9835 10.392 15.0588 10.5816 15.0588 10.8047V14.5359C15.0588 14.7479 14.9863 14.9347 14.8413 15.0964C14.6963 15.2582 14.5178 15.3502 14.3059 15.3725C13.8597 15.4171 13.4135 15.4395 12.9673 15.4395C11.2049 15.4395 9.52052 15.0992 7.91425 14.4188C6.36375 13.7607 4.99172 12.8348 3.79817 11.6413C2.60462 10.4477 1.67878 9.07571 1.02065 7.5252C0.340218 5.91893 0 4.23457 0 2.47213C0 2.02595 0.0223094 1.57976 0.0669281 1.13357C0.0892375 0.921632 0.181264 0.743157 0.343007 0.598146C0.504749 0.453135 0.69159 0.38063 0.903529 0.38063H4.63477C4.85786 0.38063 5.04749 0.455924 5.20366 0.606512C5.35983 0.7571 5.44906 0.938364 5.47137 1.1503C5.57176 2.51117 5.95102 3.78839 6.60915 4.98194C6.70954 5.17157 6.73743 5.36956 6.69281 5.57592C6.64819 5.78229 6.53664 5.94682 6.35817 6.06952L5.32078 6.80573ZM3.21255 6.25357L4.80209 5.11579C4.3559 4.14534 4.04915 3.12468 3.88183 2.05383H1.6732V2.47213C1.6732 4.00033 1.9688 5.46717 2.56 6.87266C3.12889 8.22237 3.93481 9.41871 4.97778 10.4617C6.02074 11.5046 7.21708 12.3106 8.5668 12.8795C9.97229 13.4707 11.4391 13.7663 12.9673 13.7663H13.3856V11.5576C12.3148 11.3903 11.2941 11.0835 10.3237 10.6374L9.18588 12.2269C8.72854 12.0484 8.28235 11.8365 7.84732 11.5911L7.79712 11.5744C6.98283 11.1059 6.24105 10.537 5.57176 9.86769C4.90248 9.19841 4.33359 8.45662 3.8651 7.64233L3.84837 7.59213C3.60296 7.1571 3.39102 6.71091 3.21255 6.25357Z" fill="#F53E32"/>
</svg>
