<svg width="19" height="16" viewBox="0 0 19 16" fill="none" xmlns="http://www.w3.org/2000/svg">
<path d="M17.5686 0.38063C17.8029 0.38063 18.0009 0.461501 18.1626 0.623244C18.3244 0.784987 18.4052 0.982983 18.4052 1.21723V14.6029C18.4052 14.8371 18.3244 15.0351 18.1626 15.1968C18.0009 15.3586 17.8029 15.4395 17.5686 15.4395H2.5098C2.27556 15.4395 2.07756 15.3586 1.91582 15.1968C1.75407 15.0351 1.6732 14.8371 1.6732 14.6029V13.7663H16.732V3.97801L10.0392 10.0015L1.6732 2.47213V1.21723C1.6732 0.982983 1.75407 0.784987 1.91582 0.623244C2.07756 0.461501 2.27556 0.38063 2.5098 0.38063H17.5686ZM6.69281 10.4198V12.093H0V10.4198H6.69281ZM4.18301 6.23684V7.91004H0V6.23684H4.18301ZM16.3639 2.05383H3.71451L10.0392 7.74272L16.3639 2.05383Z" fill="#F53E32"/>
</svg>
